<?xml version="1.0" standalone="no"?>
 <!DOCTYPE svg PUBLIC "-//W3C//DTD SVG 1.1//EN" 
 "http://www.w3.org/Graphics/SVG/1.1/DTD/svg11.dtd"> 
<svg xmlns="http://www.w3.org/2000/svg" version="1.1" 
    width="29.7002cm" height="21.0007cm" viewBox="0 0 116930 82680 ">
<title>SVG Picture created as numpad-Dwgs_User.svg date 2021/04/05 02:29:10 </title>
  <desc>Picture generated by PCBNEW </desc>
<g style="fill:#000000; fill-opacity:1;stroke:#000000; stroke-opacity:1;
stroke-linecap:round; stroke-linejoin:round; "
 transform="translate(0 0) scale(1 1)">
</g>
<g style="fill:#000000; fill-opacity:0.0; 
stroke:#000000; stroke-width:-0.000393701; stroke-opacity:1; 
stroke-linecap:round; stroke-linejoin:round;">
</g>
<g style="fill:#000000; fill-opacity:0.0; 
stroke:#000000; stroke-width:39.3701; stroke-opacity:1; 
stroke-linecap:round; stroke-linejoin:round;">
</g>
<g style="fill:#000000; fill-opacity:0.0; 
stroke:#000000; stroke-width:59.0551; stroke-opacity:1; 
stroke-linecap:round; stroke-linejoin:round;">
<rect x="69685.9" y="65357.2" width="42519.7" height="12598.4" rx="0" />
</g>
<g style="fill:#000000; fill-opacity:0.0; 
stroke:#000000; stroke-width:39.3701; stroke-opacity:1; 
stroke-linecap:round; stroke-linejoin:round;">
</g>
<g style="fill:#000000; fill-opacity:0.0; 
stroke:#000000; stroke-width:59.0551; stroke-opacity:1; 
stroke-linecap:round; stroke-linejoin:round;">
<rect x="3937.01" y="3937.01" width="109056" height="74806" rx="0" />
</g>
<g style="fill:#000000; fill-opacity:0.0; 
stroke:#000000; stroke-width:39.3701; stroke-opacity:1; 
stroke-linecap:round; stroke-linejoin:round;">
</g>
<g style="fill:#000000; fill-opacity:0.0; 
stroke:#000000; stroke-width:59.0551; stroke-opacity:1; 
stroke-linecap:round; stroke-linejoin:round;">
<rect x="4724.41" y="4724.41" width="107481" height="73231.2" rx="0" />
</g>
<g style="fill:#000000; fill-opacity:0.0; 
stroke:#000000; stroke-width:39.3701; stroke-opacity:1; 
stroke-linecap:round; stroke-linejoin:round;">
</g>
<g style="fill:#000000; fill-opacity:0.0; 
stroke:#000000; stroke-width:59.0551; stroke-opacity:1; 
stroke-linecap:round; stroke-linejoin:round;">
<path d="M23622 4724
L23622 3937
" />
</g>
<g style="fill:#000000; fill-opacity:0.0; 
stroke:#000000; stroke-width:39.3701; stroke-opacity:1; 
stroke-linecap:round; stroke-linejoin:round;">
</g>
<g style="fill:#000000; fill-opacity:0.0; 
stroke:#000000; stroke-width:59.0551; stroke-opacity:1; 
stroke-linecap:round; stroke-linejoin:round;">
<path d="M43307 4724
L43307 3937
" />
</g>
<g style="fill:#000000; fill-opacity:0.0; 
stroke:#000000; stroke-width:39.3701; stroke-opacity:1; 
stroke-linecap:round; stroke-linejoin:round;">
</g>
<g style="fill:#000000; fill-opacity:0.0; 
stroke:#000000; stroke-width:59.0551; stroke-opacity:1; 
stroke-linecap:round; stroke-linejoin:round;">
<path d="M62992 4724
L62992 3937
" />
</g>
<g style="fill:#000000; fill-opacity:0.0; 
stroke:#000000; stroke-width:39.3701; stroke-opacity:1; 
stroke-linecap:round; stroke-linejoin:round;">
</g>
<g style="fill:#000000; fill-opacity:0.0; 
stroke:#000000; stroke-width:59.0551; stroke-opacity:1; 
stroke-linecap:round; stroke-linejoin:round;">
<path d="M82677 4724
L82677 3937
" />
</g>
<g style="fill:#000000; fill-opacity:0.0; 
stroke:#000000; stroke-width:39.3701; stroke-opacity:1; 
stroke-linecap:round; stroke-linejoin:round;">
</g>
<g style="fill:#000000; fill-opacity:0.0; 
stroke:#000000; stroke-width:59.0551; stroke-opacity:1; 
stroke-linecap:round; stroke-linejoin:round;">
<path d="M102362 4724
L102362 3937
" />
</g>
<g style="fill:#000000; fill-opacity:0.0; 
stroke:#000000; stroke-width:39.3701; stroke-opacity:1; 
stroke-linecap:round; stroke-linejoin:round;">
</g>
<g style="fill:#000000; fill-opacity:0.0; 
stroke:#000000; stroke-width:59.0551; stroke-opacity:1; 
stroke-linecap:round; stroke-linejoin:round;">
<path d="M14199 4562
L13906 4562
" />
<path d="M14052 4562
L14052 4050
L14004 4123
L13955 4172
L13906 4196
" />
</g>
<g style="fill:#000000; fill-opacity:0.0; 
stroke:#000000; stroke-width:39.3701; stroke-opacity:1; 
stroke-linecap:round; stroke-linejoin:round;">
</g>
<g style="fill:#000000; fill-opacity:0.0; 
stroke:#000000; stroke-width:59.0551; stroke-opacity:1; 
stroke-linecap:round; stroke-linejoin:round;">
<path d="M33591 4099
L33615 4074
L33664 4050
L33786 4050
L33835 4074
L33859 4099
L33884 4147
L33884 4196
L33859 4269
L33567 4562
L33884 4562
" />
</g>
<g style="fill:#000000; fill-opacity:0.0; 
stroke:#000000; stroke-width:39.3701; stroke-opacity:1; 
stroke-linecap:round; stroke-linejoin:round;">
</g>
<g style="fill:#000000; fill-opacity:0.0; 
stroke:#000000; stroke-width:59.0551; stroke-opacity:1; 
stroke-linecap:round; stroke-linejoin:round;">
<path d="M53252 4050
L53569 4050
L53398 4245
L53471 4245
L53520 4269
L53544 4294
L53569 4342
L53569 4464
L53544 4513
L53520 4537
L53471 4562
L53325 4562
L53276 4537
L53252 4513
" />
</g>
<g style="fill:#000000; fill-opacity:0.0; 
stroke:#000000; stroke-width:39.3701; stroke-opacity:1; 
stroke-linecap:round; stroke-linejoin:round;">
</g>
<g style="fill:#000000; fill-opacity:0.0; 
stroke:#000000; stroke-width:59.0551; stroke-opacity:1; 
stroke-linecap:round; stroke-linejoin:round;">
<path d="M73205 4221
L73205 4562
" />
<path d="M73083 4026
L72961 4391
L73278 4391
" />
</g>
<g style="fill:#000000; fill-opacity:0.0; 
stroke:#000000; stroke-width:39.3701; stroke-opacity:1; 
stroke-linecap:round; stroke-linejoin:round;">
</g>
<g style="fill:#000000; fill-opacity:0.0; 
stroke:#000000; stroke-width:59.0551; stroke-opacity:1; 
stroke-linecap:round; stroke-linejoin:round;">
<path d="M92914 4050
L92671 4050
L92646 4294
L92671 4269
L92719 4245
L92841 4245
L92890 4269
L92914 4294
L92939 4342
L92939 4464
L92914 4513
L92890 4537
L92841 4562
L92719 4562
L92671 4537
L92646 4513
" />
</g>
<g style="fill:#000000; fill-opacity:0.0; 
stroke:#000000; stroke-width:39.3701; stroke-opacity:1; 
stroke-linecap:round; stroke-linejoin:round;">
</g>
<g style="fill:#000000; fill-opacity:0.0; 
stroke:#000000; stroke-width:59.0551; stroke-opacity:1; 
stroke-linecap:round; stroke-linejoin:round;">
<path d="M112575 4050
L112477 4050
L112429 4074
L112404 4099
L112356 4172
L112331 4269
L112331 4464
L112356 4513
L112380 4537
L112429 4562
L112526 4562
L112575 4537
L112599 4513
L112624 4464
L112624 4342
L112599 4294
L112575 4269
L112526 4245
L112429 4245
L112380 4269
L112356 4294
L112331 4342
" />
</g>
<g style="fill:#000000; fill-opacity:0.0; 
stroke:#000000; stroke-width:39.3701; stroke-opacity:1; 
stroke-linecap:round; stroke-linejoin:round;">
</g>
<g style="fill:#000000; fill-opacity:0.0; 
stroke:#000000; stroke-width:59.0551; stroke-opacity:1; 
stroke-linecap:round; stroke-linejoin:round;">
<path d="M23622 77955
L23622 78742
" />
</g>
<g style="fill:#000000; fill-opacity:0.0; 
stroke:#000000; stroke-width:39.3701; stroke-opacity:1; 
stroke-linecap:round; stroke-linejoin:round;">
</g>
<g style="fill:#000000; fill-opacity:0.0; 
stroke:#000000; stroke-width:59.0551; stroke-opacity:1; 
stroke-linecap:round; stroke-linejoin:round;">
<path d="M43307 77955
L43307 78742
" />
</g>
<g style="fill:#000000; fill-opacity:0.0; 
stroke:#000000; stroke-width:39.3701; stroke-opacity:1; 
stroke-linecap:round; stroke-linejoin:round;">
</g>
<g style="fill:#000000; fill-opacity:0.0; 
stroke:#000000; stroke-width:59.0551; stroke-opacity:1; 
stroke-linecap:round; stroke-linejoin:round;">
<path d="M62992 77955
L62992 78742
" />
</g>
<g style="fill:#000000; fill-opacity:0.0; 
stroke:#000000; stroke-width:39.3701; stroke-opacity:1; 
stroke-linecap:round; stroke-linejoin:round;">
</g>
<g style="fill:#000000; fill-opacity:0.0; 
stroke:#000000; stroke-width:59.0551; stroke-opacity:1; 
stroke-linecap:round; stroke-linejoin:round;">
<path d="M82677 77955
L82677 78742
" />
</g>
<g style="fill:#000000; fill-opacity:0.0; 
stroke:#000000; stroke-width:39.3701; stroke-opacity:1; 
stroke-linecap:round; stroke-linejoin:round;">
</g>
<g style="fill:#000000; fill-opacity:0.0; 
stroke:#000000; stroke-width:59.0551; stroke-opacity:1; 
stroke-linecap:round; stroke-linejoin:round;">
<path d="M102362 77955
L102362 78742
" />
</g>
<g style="fill:#000000; fill-opacity:0.0; 
stroke:#000000; stroke-width:39.3701; stroke-opacity:1; 
stroke-linecap:round; stroke-linejoin:round;">
</g>
<g style="fill:#000000; fill-opacity:0.0; 
stroke:#000000; stroke-width:59.0551; stroke-opacity:1; 
stroke-linecap:round; stroke-linejoin:round;">
<path d="M14199 78580
L13906 78580
" />
<path d="M14052 78580
L14052 78069
L14004 78142
L13955 78190
L13906 78215
" />
</g>
<g style="fill:#000000; fill-opacity:0.0; 
stroke:#000000; stroke-width:39.3701; stroke-opacity:1; 
stroke-linecap:round; stroke-linejoin:round;">
</g>
<g style="fill:#000000; fill-opacity:0.0; 
stroke:#000000; stroke-width:59.0551; stroke-opacity:1; 
stroke-linecap:round; stroke-linejoin:round;">
<path d="M33591 78117
L33615 78093
L33664 78069
L33786 78069
L33835 78093
L33859 78117
L33884 78166
L33884 78215
L33859 78288
L33567 78580
L33884 78580
" />
</g>
<g style="fill:#000000; fill-opacity:0.0; 
stroke:#000000; stroke-width:39.3701; stroke-opacity:1; 
stroke-linecap:round; stroke-linejoin:round;">
</g>
<g style="fill:#000000; fill-opacity:0.0; 
stroke:#000000; stroke-width:59.0551; stroke-opacity:1; 
stroke-linecap:round; stroke-linejoin:round;">
<path d="M53252 78069
L53569 78069
L53398 78263
L53471 78263
L53520 78288
L53544 78312
L53569 78361
L53569 78483
L53544 78532
L53520 78556
L53471 78580
L53325 78580
L53276 78556
L53252 78532
" />
</g>
<g style="fill:#000000; fill-opacity:0.0; 
stroke:#000000; stroke-width:39.3701; stroke-opacity:1; 
stroke-linecap:round; stroke-linejoin:round;">
</g>
<g style="fill:#000000; fill-opacity:0.0; 
stroke:#000000; stroke-width:59.0551; stroke-opacity:1; 
stroke-linecap:round; stroke-linejoin:round;">
<path d="M73205 78239
L73205 78580
" />
<path d="M73083 78044
L72961 78410
L73278 78410
" />
</g>
<g style="fill:#000000; fill-opacity:0.0; 
stroke:#000000; stroke-width:39.3701; stroke-opacity:1; 
stroke-linecap:round; stroke-linejoin:round;">
</g>
<g style="fill:#000000; fill-opacity:0.0; 
stroke:#000000; stroke-width:59.0551; stroke-opacity:1; 
stroke-linecap:round; stroke-linejoin:round;">
<path d="M92914 78069
L92671 78069
L92646 78312
L92671 78288
L92719 78263
L92841 78263
L92890 78288
L92914 78312
L92939 78361
L92939 78483
L92914 78532
L92890 78556
L92841 78580
L92719 78580
L92671 78556
L92646 78532
" />
</g>
<g style="fill:#000000; fill-opacity:0.0; 
stroke:#000000; stroke-width:39.3701; stroke-opacity:1; 
stroke-linecap:round; stroke-linejoin:round;">
</g>
<g style="fill:#000000; fill-opacity:0.0; 
stroke:#000000; stroke-width:59.0551; stroke-opacity:1; 
stroke-linecap:round; stroke-linejoin:round;">
<path d="M112575 78069
L112477 78069
L112429 78093
L112404 78117
L112356 78190
L112331 78288
L112331 78483
L112356 78532
L112380 78556
L112429 78580
L112526 78580
L112575 78556
L112599 78532
L112624 78483
L112624 78361
L112599 78312
L112575 78288
L112526 78263
L112429 78263
L112380 78288
L112356 78312
L112331 78361
" />
</g>
<g style="fill:#000000; fill-opacity:0.0; 
stroke:#000000; stroke-width:39.3701; stroke-opacity:1; 
stroke-linecap:round; stroke-linejoin:round;">
</g>
<g style="fill:#000000; fill-opacity:0.0; 
stroke:#000000; stroke-width:59.0551; stroke-opacity:1; 
stroke-linecap:round; stroke-linejoin:round;">
<path d="M3937 23622
L4724 23622
" />
</g>
<g style="fill:#000000; fill-opacity:0.0; 
stroke:#000000; stroke-width:39.3701; stroke-opacity:1; 
stroke-linecap:round; stroke-linejoin:round;">
</g>
<g style="fill:#000000; fill-opacity:0.0; 
stroke:#000000; stroke-width:59.0551; stroke-opacity:1; 
stroke-linecap:round; stroke-linejoin:round;">
<path d="M3937 43307
L4724 43307
" />
</g>
<g style="fill:#000000; fill-opacity:0.0; 
stroke:#000000; stroke-width:39.3701; stroke-opacity:1; 
stroke-linecap:round; stroke-linejoin:round;">
</g>
<g style="fill:#000000; fill-opacity:0.0; 
stroke:#000000; stroke-width:59.0551; stroke-opacity:1; 
stroke-linecap:round; stroke-linejoin:round;">
<path d="M3937 62992
L4724 62992
" />
</g>
<g style="fill:#000000; fill-opacity:0.0; 
stroke:#000000; stroke-width:39.3701; stroke-opacity:1; 
stroke-linecap:round; stroke-linejoin:round;">
</g>
<g style="fill:#000000; fill-opacity:0.0; 
stroke:#000000; stroke-width:59.0551; stroke-opacity:1; 
stroke-linecap:round; stroke-linejoin:round;">
<path d="M4208 13864
L4452 13864
" />
<path d="M4160 14011
L4330 13499
L4501 14011
" />
</g>
<g style="fill:#000000; fill-opacity:0.0; 
stroke:#000000; stroke-width:39.3701; stroke-opacity:1; 
stroke-linecap:round; stroke-linejoin:round;">
</g>
<g style="fill:#000000; fill-opacity:0.0; 
stroke:#000000; stroke-width:59.0551; stroke-opacity:1; 
stroke-linecap:round; stroke-linejoin:round;">
<path d="M4367 33428
L4440 33452
L4464 33476
L4489 33525
L4489 33598
L4464 33647
L4440 33671
L4391 33696
L4196 33696
L4196 33184
L4367 33184
L4416 33208
L4440 33233
L4464 33281
L4464 33330
L4440 33379
L4416 33403
L4367 33428
L4196 33428
" />
</g>
<g style="fill:#000000; fill-opacity:0.0; 
stroke:#000000; stroke-width:39.3701; stroke-opacity:1; 
stroke-linecap:round; stroke-linejoin:round;">
</g>
<g style="fill:#000000; fill-opacity:0.0; 
stroke:#000000; stroke-width:59.0551; stroke-opacity:1; 
stroke-linecap:round; stroke-linejoin:round;">
<path d="M4489 53332
L4464 53356
L4391 53381
L4342 53381
L4269 53356
L4221 53308
L4196 53259
L4172 53161
L4172 53088
L4196 52991
L4221 52942
L4269 52893
L4342 52869
L4391 52869
L4464 52893
L4489 52918
" />
</g>
<g style="fill:#000000; fill-opacity:0.0; 
stroke:#000000; stroke-width:39.3701; stroke-opacity:1; 
stroke-linecap:round; stroke-linejoin:round;">
</g>
<g style="fill:#000000; fill-opacity:0.0; 
stroke:#000000; stroke-width:59.0551; stroke-opacity:1; 
stroke-linecap:round; stroke-linejoin:round;">
<path d="M4196 73066
L4196 72554
L4318 72554
L4391 72578
L4440 72627
L4464 72676
L4489 72773
L4489 72846
L4464 72944
L4440 72993
L4391 73041
L4318 73066
L4196 73066
" />
</g>
<g style="fill:#000000; fill-opacity:0.0; 
stroke:#000000; stroke-width:39.3701; stroke-opacity:1; 
stroke-linecap:round; stroke-linejoin:round;">
</g>
<g style="fill:#000000; fill-opacity:0.0; 
stroke:#000000; stroke-width:59.0551; stroke-opacity:1; 
stroke-linecap:round; stroke-linejoin:round;">
<path d="M112992 23622
L112205 23622
" />
</g>
<g style="fill:#000000; fill-opacity:0.0; 
stroke:#000000; stroke-width:39.3701; stroke-opacity:1; 
stroke-linecap:round; stroke-linejoin:round;">
</g>
<g style="fill:#000000; fill-opacity:0.0; 
stroke:#000000; stroke-width:59.0551; stroke-opacity:1; 
stroke-linecap:round; stroke-linejoin:round;">
<path d="M112992 43307
L112205 43307
" />
</g>
<g style="fill:#000000; fill-opacity:0.0; 
stroke:#000000; stroke-width:39.3701; stroke-opacity:1; 
stroke-linecap:round; stroke-linejoin:round;">
</g>
<g style="fill:#000000; fill-opacity:0.0; 
stroke:#000000; stroke-width:59.0551; stroke-opacity:1; 
stroke-linecap:round; stroke-linejoin:round;">
<path d="M112992 62992
L112205 62992
" />
</g>
<g style="fill:#000000; fill-opacity:0.0; 
stroke:#000000; stroke-width:39.3701; stroke-opacity:1; 
stroke-linecap:round; stroke-linejoin:round;">
</g>
<g style="fill:#000000; fill-opacity:0.0; 
stroke:#000000; stroke-width:59.0551; stroke-opacity:1; 
stroke-linecap:round; stroke-linejoin:round;">
<path d="M112477 13864
L112721 13864
" />
<path d="M112428 14011
L112599 13499
L112769 14011
" />
</g>
<g style="fill:#000000; fill-opacity:0.0; 
stroke:#000000; stroke-width:39.3701; stroke-opacity:1; 
stroke-linecap:round; stroke-linejoin:round;">
</g>
<g style="fill:#000000; fill-opacity:0.0; 
stroke:#000000; stroke-width:59.0551; stroke-opacity:1; 
stroke-linecap:round; stroke-linejoin:round;">
<path d="M112635 33428
L112708 33452
L112733 33476
L112757 33525
L112757 33598
L112733 33647
L112708 33671
L112660 33696
L112465 33696
L112465 33184
L112635 33184
L112684 33208
L112708 33233
L112733 33281
L112733 33330
L112708 33379
L112684 33403
L112635 33428
L112465 33428
" />
</g>
<g style="fill:#000000; fill-opacity:0.0; 
stroke:#000000; stroke-width:39.3701; stroke-opacity:1; 
stroke-linecap:round; stroke-linejoin:round;">
</g>
<g style="fill:#000000; fill-opacity:0.0; 
stroke:#000000; stroke-width:59.0551; stroke-opacity:1; 
stroke-linecap:round; stroke-linejoin:round;">
<path d="M112757 53332
L112733 53356
L112660 53381
L112611 53381
L112538 53356
L112489 53308
L112465 53259
L112440 53161
L112440 53088
L112465 52991
L112489 52942
L112538 52893
L112611 52869
L112660 52869
L112733 52893
L112757 52918
" />
</g>
<g style="fill:#000000; fill-opacity:0.0; 
stroke:#000000; stroke-width:39.3701; stroke-opacity:1; 
stroke-linecap:round; stroke-linejoin:round;">
</g>
<g style="fill:#000000; fill-opacity:0.0; 
stroke:#000000; stroke-width:59.0551; stroke-opacity:1; 
stroke-linecap:round; stroke-linejoin:round;">
<path d="M112465 73066
L112465 72554
L112587 72554
L112660 72578
L112708 72627
L112733 72676
L112757 72773
L112757 72846
L112733 72944
L112708 72993
L112660 73041
L112587 73066
L112465 73066
" />
</g>
<g style="fill:#000000; fill-opacity:0.0; 
stroke:#000000; stroke-width:39.3701; stroke-opacity:1; 
stroke-linecap:round; stroke-linejoin:round;">
</g>
<g style="fill:#000000; fill-opacity:0.0; 
stroke:#000000; stroke-width:59.0551; stroke-opacity:1; 
stroke-linecap:round; stroke-linejoin:round;">
<path d="M78911 76293
L78911 75703
L79051 75703
L79136 75731
L79192 75787
L79220 75843
L79248 75956
L79248 76040
L79220 76153
L79192 76209
L79136 76265
L79051 76293
L78911 76293
" />
<path d="M79754 76293
L79754 75984
L79726 75928
L79670 75899
L79557 75899
L79501 75928
" />
<path d="M79754 76265
L79698 76293
L79557 76293
L79501 76265
L79473 76209
L79473 76153
L79501 76096
L79557 76068
L79698 76068
L79754 76040
" />
<path d="M79951 75899
L80176 75899
" />
<path d="M80036 75703
L80036 76209
L80064 76265
L80120 76293
L80176 76293
" />
<path d="M80598 76265
L80542 76293
L80429 76293
L80373 76265
L80345 76209
L80345 75984
L80373 75928
L80429 75899
L80542 75899
L80598 75928
L80626 75984
L80626 76040
L80345 76096
" />
<path d="M80879 76237
L80907 76265
L80879 76293
L80851 76265
L80879 76237
L80879 76293
" />
<path d="M80879 75928
L80907 75956
L80879 75984
L80851 75956
L80879 75928
L80879 75984
" />
</g>
<g style="fill:#000000; fill-opacity:0.0; 
stroke:#000000; stroke-width:39.3701; stroke-opacity:1; 
stroke-linecap:round; stroke-linejoin:round;">
</g>
<g style="fill:#000000; fill-opacity:0.0; 
stroke:#000000; stroke-width:59.0551; stroke-opacity:1; 
stroke-linecap:round; stroke-linejoin:round;">
<path d="M69685 76577
L112205 76577
" />
</g>
<g style="fill:#000000; fill-opacity:0.0; 
stroke:#000000; stroke-width:39.3701; stroke-opacity:1; 
stroke-linecap:round; stroke-linejoin:round;">
</g>
<g style="fill:#000000; fill-opacity:0.0; 
stroke:#000000; stroke-width:59.0551; stroke-opacity:1; 
stroke-linecap:round; stroke-linejoin:round;">
<path d="M70249 77395
L70249 76805
" />
<path d="M70587 77395
L70334 77058
" />
<path d="M70587 76805
L70249 77142
" />
<path d="M70840 77395
L70840 77002
" />
<path d="M70840 76805
L70812 76833
L70840 76861
L70868 76833
L70840 76805
L70840 76861
" />
<path d="M71458 77339
L71430 77367
L71346 77395
L71290 77395
L71205 77367
L71149 77311
L71121 77255
L71093 77142
L71093 77058
L71121 76946
L71149 76889
L71205 76833
L71290 76805
L71346 76805
L71430 76833
L71458 76861
" />
<path d="M71965 77395
L71965 77086
L71937 77030
L71880 77002
L71768 77002
L71712 77030
" />
<path d="M71965 77367
L71908 77395
L71768 77395
L71712 77367
L71683 77311
L71683 77255
L71712 77199
L71768 77171
L71908 77171
L71965 77142
" />
<path d="M72499 77395
L72499 76805
" />
<path d="M72499 77367
L72443 77395
L72330 77395
L72274 77367
L72246 77339
L72218 77283
L72218 77114
L72246 77058
L72274 77030
L72330 77002
L72443 77002
L72499 77030
" />
<path d="M73230 77086
L73427 77086
" />
<path d="M73511 77395
L73230 77395
L73230 76805
L73511 76805
" />
<path d="M73764 77339
L73793 77367
L73764 77395
L73736 77367
L73764 77339
L73764 77395
" />
<path d="M74046 77395
L74046 76805
L74186 76805
L74271 76833
L74327 76889
L74355 76946
L74383 77058
L74383 77142
L74355 77255
L74327 77311
L74271 77367
L74186 77395
L74046 77395
" />
<path d="M74636 77339
L74664 77367
L74636 77395
L74608 77367
L74636 77339
L74636 77395
" />
<path d="M74889 77227
L75171 77227
" />
<path d="M74833 77395
L75030 76805
L75227 77395
" />
<path d="M75424 77339
L75452 77367
L75424 77395
L75395 77367
L75424 77339
L75424 77395
" />
<path d="M76605 77395
L76605 76805
" />
<path d="M76661 77171
L76830 77395
" />
<path d="M76830 77002
L76605 77227
" />
<path d="M77083 77395
L77083 77002
" />
<path d="M77083 76805
L77055 76833
L77083 76861
L77111 76833
L77083 76805
L77083 76861
" />
<path d="M77617 77367
L77561 77395
L77448 77395
L77392 77367
L77364 77339
L77336 77283
L77336 77114
L77364 77058
L77392 77030
L77448 77002
L77561 77002
L77617 77030
" />
<path d="M78123 77395
L78123 77086
L78095 77030
L78039 77002
L77926 77002
L77870 77030
" />
<path d="M78123 77367
L78067 77395
L77926 77395
L77870 77367
L77842 77311
L77842 77255
L77870 77199
L77926 77171
L78067 77171
L78123 77142
" />
<path d="M78658 77395
L78658 76805
" />
<path d="M78658 77367
L78601 77395
L78489 77395
L78433 77367
L78404 77339
L78376 77283
L78376 77114
L78404 77058
L78433 77030
L78489 77002
L78601 77002
L78658 77030
" />
<path d="M79557 77620
L79529 77592
L79473 77508
L79445 77452
L79417 77367
L79389 77227
L79389 77114
L79417 76974
L79445 76889
L79473 76833
L79529 76749
L79557 76721
" />
<path d="M80064 76805
L79782 76805
L79754 77086
L79782 77058
L79839 77030
L79979 77030
L80036 77058
L80064 77086
L80092 77142
L80092 77283
L80064 77339
L80036 77367
L79979 77395
L79839 77395
L79782 77367
L79754 77339
" />
<path d="M80345 77339
L80373 77367
L80345 77395
L80317 77367
L80345 77339
L80345 77395
" />
<path d="M80935 77395
L80598 77395
" />
<path d="M80767 77395
L80767 76805
L80710 76889
L80654 76946
L80598 76974
" />
<path d="M81188 77339
L81217 77367
L81188 77395
L81160 77367
L81188 77339
L81188 77395
" />
<path d="M81723 77002
L81723 77395
" />
<path d="M81582 76777
L81442 77199
L81807 77199
" />
<path d="M81976 77620
L82004 77592
L82060 77508
L82088 77452
L82117 77367
L82145 77227
L82145 77114
L82117 76974
L82088 76889
L82060 76833
L82004 76749
L81976 76721
" />
<path d="M82426 77171
L82876 77171
" />
<path d="M83466 77395
L83129 77395
" />
<path d="M83298 77395
L83298 76805
L83241 76889
L83185 76946
L83129 76974
" />
</g>
<g style="fill:#000000; fill-opacity:0.0; 
stroke:#000000; stroke-width:39.3701; stroke-opacity:1; 
stroke-linecap:round; stroke-linejoin:round;">
</g>
<g style="fill:#000000; fill-opacity:0.0; 
stroke:#000000; stroke-width:59.0551; stroke-opacity:1; 
stroke-linecap:round; stroke-linejoin:round;">
<path d="M69685 75396
L112205 75396
" />
</g>
<g style="fill:#000000; fill-opacity:0.0; 
stroke:#000000; stroke-width:39.3701; stroke-opacity:1; 
stroke-linecap:round; stroke-linejoin:round;">
</g>
<g style="fill:#000000; fill-opacity:0.0; 
stroke:#000000; stroke-width:118.11; stroke-opacity:1; 
stroke-linecap:round; stroke-linejoin:round;">
<path d="M104099 76293
L103902 76012
" />
<path d="M103761 76293
L103761 75703
L103986 75703
L104042 75731
L104070 75759
L104099 75815
L104099 75899
L104070 75956
L104042 75984
L103986 76012
L103761 76012
" />
<path d="M104577 76265
L104520 76293
L104408 76293
L104352 76265
L104323 76209
L104323 75984
L104352 75928
L104408 75899
L104520 75899
L104577 75928
L104605 75984
L104605 76040
L104323 76096
" />
<path d="M104802 75899
L104942 76293
L105083 75899
" />
<path d="M105308 76237
L105336 76265
L105308 76293
L105280 76265
L105308 76237
L105308 76293
" />
<path d="M105308 75928
L105336 75956
L105308 75984
L105280 75956
L105308 75928
L105308 75984
" />
</g>
<g style="fill:#000000; fill-opacity:0.0; 
stroke:#000000; stroke-width:39.3701; stroke-opacity:1; 
stroke-linecap:round; stroke-linejoin:round;">
</g>
<g style="fill:#000000; fill-opacity:0.0; 
stroke:#000000; stroke-width:59.0551; stroke-opacity:1; 
stroke-linecap:round; stroke-linejoin:round;">
<path d="M70221 76265
L70305 76293
L70446 76293
L70502 76265
L70530 76237
L70559 76181
L70559 76124
L70530 76068
L70502 76040
L70446 76012
L70334 75984
L70277 75956
L70249 75928
L70221 75871
L70221 75815
L70249 75759
L70277 75731
L70334 75703
L70474 75703
L70559 75731
" />
<path d="M70812 76293
L70812 75899
" />
<path d="M70812 75703
L70784 75731
L70812 75759
L70840 75731
L70812 75703
L70812 75759
" />
<path d="M71037 75899
L71346 75899
L71037 76293
L71346 76293
" />
<path d="M71796 76265
L71740 76293
L71627 76293
L71571 76265
L71543 76209
L71543 75984
L71571 75928
L71627 75899
L71740 75899
L71796 75928
L71824 75984
L71824 76040
L71543 76096
" />
<path d="M72077 76237
L72105 76265
L72077 76293
L72049 76265
L72077 76237
L72077 76293
" />
<path d="M72077 75928
L72105 75956
L72077 75984
L72049 75956
L72077 75928
L72077 75984
" />
<path d="M72780 76124
L73061 76124
" />
<path d="M72724 76293
L72921 75703
L73118 76293
" />
<path d="M73568 75899
L73568 76293
" />
<path d="M73427 75674
L73286 76096
L73652 76096
" />
</g>
<g style="fill:#000000; fill-opacity:0.0; 
stroke:#000000; stroke-width:39.3701; stroke-opacity:1; 
stroke-linecap:round; stroke-linejoin:round;">
</g>
<g style="fill:#000000; fill-opacity:0.0; 
stroke:#000000; stroke-width:59.0551; stroke-opacity:1; 
stroke-linecap:round; stroke-linejoin:round;">
<path d="M103714 77395
L103714 76805
" />
<path d="M104248 77395
L104248 76805
" />
<path d="M104248 77367
L104192 77395
L104079 77395
L104023 77367
L103995 77339
L103967 77283
L103967 77114
L103995 77058
L104023 77030
L104079 77002
L104192 77002
L104248 77030
" />
<path d="M104529 77339
L104557 77367
L104529 77395
L104501 77367
L104529 77339
L104529 77395
" />
<path d="M104529 77030
L104557 77058
L104529 77086
L104501 77058
L104529 77030
L104529 77086
" />
<path d="M105570 77395
L105232 77395
" />
<path d="M105401 77395
L105401 76805
L105345 76889
L105289 76946
L105232 76974
" />
<path d="M106245 76777
L105739 77536
" />
<path d="M106751 77395
L106413 77395
" />
<path d="M106582 77395
L106582 76805
L106526 76889
L106470 76946
L106413 76974
" />
</g>
<g style="fill:#000000; fill-opacity:0.0; 
stroke:#000000; stroke-width:39.3701; stroke-opacity:1; 
stroke-linecap:round; stroke-linejoin:round;">
</g>
<g style="fill:#000000; fill-opacity:0.0; 
stroke:#000000; stroke-width:59.0551; stroke-opacity:1; 
stroke-linecap:round; stroke-linejoin:round;">
<path d="M69685 73821
L112205 73821
" />
</g>
<g style="fill:#000000; fill-opacity:0.0; 
stroke:#000000; stroke-width:39.3701; stroke-opacity:1; 
stroke-linecap:round; stroke-linejoin:round;">
</g>
<g style="fill:#000000; fill-opacity:0.0; 
stroke:#000000; stroke-width:157.48; stroke-opacity:1; 
stroke-linecap:round; stroke-linejoin:round;">
<path d="M70360 74099
L70810 74099
" />
<path d="M70486 74886
L70585 74099
" />
<path d="M70974 74886
L71039 74361
" />
<path d="M71072 74099
L71030 74136
L71063 74174
L71105 74136
L71072 74099
L71063 74174
" />
<path d="M71302 74361
L71602 74361
" />
<path d="M71447 74099
L71363 74774
L71391 74849
L71461 74886
L71536 74886
" />
<path d="M71911 74886
L71841 74849
L71813 74774
L71897 74099
" />
<path d="M72516 74849
L72436 74886
L72286 74886
L72216 74849
L72187 74774
L72225 74474
L72272 74399
L72352 74361
L72501 74361
L72572 74399
L72600 74474
L72591 74549
L72206 74624
" />
<path d="M72895 74811
L72928 74849
L72886 74886
L72853 74849
L72895 74811
L72886 74886
" />
<path d="M72947 74399
L72980 74436
L72937 74474
L72905 74436
L72947 74399
L72937 74474
" />
</g>
<g style="fill:#000000; fill-opacity:0.0; 
stroke:#000000; stroke-width:39.3701; stroke-opacity:1; 
stroke-linecap:round; stroke-linejoin:round;">
</g>
<g style="fill:#000000; fill-opacity:0.0; 
stroke:#000000; stroke-width:59.0551; stroke-opacity:1; 
stroke-linecap:round; stroke-linejoin:round;">
<path d="M70446 73070
L70249 73070
" />
<path d="M70249 73380
L70249 72789
L70530 72789
" />
<path d="M70755 73380
L70755 72986
" />
<path d="M70755 72789
L70727 72817
L70755 72845
L70784 72817
L70755 72789
L70755 72845
" />
<path d="M71121 73380
L71065 73352
L71037 73295
L71037 72789
" />
<path d="M71571 73352
L71515 73380
L71402 73380
L71346 73352
L71318 73295
L71318 73070
L71346 73014
L71402 72986
L71515 72986
L71571 73014
L71599 73070
L71599 73127
L71318 73183
" />
<path d="M71852 73323
L71880 73352
L71852 73380
L71824 73352
L71852 73323
L71852 73380
" />
<path d="M71852 73014
L71880 73042
L71852 73070
L71824 73042
L71852 73014
L71852 73070
" />
<path d="M72583 72986
L72583 73380
" />
<path d="M72583 73042
L72611 73014
L72668 72986
L72752 72986
L72808 73014
L72836 73070
L72836 73380
" />
<path d="M73371 72986
L73371 73380
" />
<path d="M73118 72986
L73118 73295
L73146 73352
L73202 73380
L73286 73380
L73343 73352
L73371 73323
" />
<path d="M73652 73380
L73652 72986
" />
<path d="M73652 73042
L73680 73014
L73736 72986
L73821 72986
L73877 73014
L73905 73070
L73905 73380
" />
<path d="M73905 73070
L73933 73014
L73989 72986
L74074 72986
L74130 73014
L74158 73070
L74158 73380
" />
<path d="M74439 72986
L74439 73577
" />
<path d="M74439 73014
L74496 72986
L74608 72986
L74664 73014
L74692 73042
L74721 73099
L74721 73267
L74692 73323
L74664 73352
L74608 73380
L74496 73380
L74439 73352
" />
<path d="M75227 73380
L75227 73070
L75199 73014
L75142 72986
L75030 72986
L74974 73014
" />
<path d="M75227 73352
L75171 73380
L75030 73380
L74974 73352
L74946 73295
L74946 73239
L74974 73183
L75030 73155
L75171 73155
L75227 73127
" />
<path d="M75761 73380
L75761 72789
" />
<path d="M75761 73352
L75705 73380
L75592 73380
L75536 73352
L75508 73323
L75480 73267
L75480 73099
L75508 73042
L75536 73014
L75592 72986
L75705 72986
L75761 73014
" />
<path d="M76042 73323
L76070 73352
L76042 73380
L76014 73352
L76042 73323
L76042 73380
" />
<path d="M76323 73380
L76323 72789
" />
<path d="M76380 73155
L76548 73380
" />
<path d="M76548 72986
L76323 73211
" />
<path d="M76802 73380
L76802 72986
" />
<path d="M76802 72789
L76773 72817
L76802 72845
L76830 72817
L76802 72789
L76802 72845
" />
<path d="M77336 73352
L77280 73380
L77167 73380
L77111 73352
L77083 73323
L77055 73267
L77055 73099
L77083 73042
L77111 73014
L77167 72986
L77280 72986
L77336 73014
" />
<path d="M77842 73380
L77842 73070
L77814 73014
L77758 72986
L77645 72986
L77589 73014
" />
<path d="M77842 73352
L77786 73380
L77645 73380
L77589 73352
L77561 73295
L77561 73239
L77589 73183
L77645 73155
L77786 73155
L77842 73127
" />
<path d="M78376 73380
L78376 72789
" />
<path d="M78376 73352
L78320 73380
L78208 73380
L78151 73352
L78123 73323
L78095 73267
L78095 73099
L78123 73042
L78151 73014
L78208 72986
L78320 72986
L78376 73014
" />
<path d="M78517 73436
L78967 73436
" />
<path d="M79108 72986
L79108 73577
" />
<path d="M79108 73014
L79164 72986
L79276 72986
L79332 73014
L79361 73042
L79389 73099
L79389 73267
L79361 73323
L79332 73352
L79276 73380
L79164 73380
L79108 73352
" />
<path d="M79895 73352
L79839 73380
L79726 73380
L79670 73352
L79642 73323
L79614 73267
L79614 73099
L79642 73042
L79670 73014
L79726 72986
L79839 72986
L79895 73014
" />
<path d="M80148 73380
L80148 72789
" />
<path d="M80148 73014
L80204 72986
L80317 72986
L80373 73014
L80401 73042
L80429 73099
L80429 73267
L80401 73323
L80373 73352
L80317 73380
L80204 73380
L80148 73352
" />
</g>
<g style="fill:#000000; fill-opacity:0.0; 
stroke:#000000; stroke-width:39.3701; stroke-opacity:1; 
stroke-linecap:round; stroke-linejoin:round;">
</g>
<g style="fill:#000000; fill-opacity:0.0; 
stroke:#000000; stroke-width:59.0551; stroke-opacity:1; 
stroke-linecap:round; stroke-linejoin:round;">
<path d="M69685 71459
L112205 71459
" />
</g>
<g style="fill:#000000; fill-opacity:0.0; 
stroke:#000000; stroke-width:39.3701; stroke-opacity:1; 
stroke-linecap:round; stroke-linejoin:round;">
</g>
<g style="fill:#000000; fill-opacity:0.0; 
stroke:#000000; stroke-width:59.0551; stroke-opacity:1; 
stroke-linecap:round; stroke-linejoin:round;">
<path d="M70221 72289
L70305 72317
L70446 72317
L70502 72289
L70530 72260
L70559 72204
L70559 72148
L70530 72092
L70502 72064
L70446 72036
L70334 72007
L70277 71979
L70249 71951
L70221 71895
L70221 71839
L70249 71782
L70277 71754
L70334 71726
L70474 71726
L70559 71754
" />
<path d="M70812 72317
L70812 71726
" />
<path d="M71065 72317
L71065 72007
L71037 71951
L70980 71923
L70896 71923
L70840 71951
L70812 71979
" />
<path d="M71571 72289
L71515 72317
L71402 72317
L71346 72289
L71318 72232
L71318 72007
L71346 71951
L71402 71923
L71515 71923
L71571 71951
L71599 72007
L71599 72064
L71318 72120
" />
<path d="M72077 72289
L72021 72317
L71908 72317
L71852 72289
L71824 72232
L71824 72007
L71852 71951
L71908 71923
L72021 71923
L72077 71951
L72105 72007
L72105 72064
L71824 72120
" />
<path d="M72274 71923
L72499 71923
" />
<path d="M72358 71726
L72358 72232
L72386 72289
L72443 72317
L72499 72317
" />
<path d="M72696 72260
L72724 72289
L72696 72317
L72668 72289
L72696 72260
L72696 72317
" />
<path d="M72696 71951
L72724 71979
L72696 72007
L72668 71979
L72696 71951
L72696 72007
" />
</g>
<g style="fill:#000000; fill-opacity:0.0; 
stroke:#000000; stroke-width:39.3701; stroke-opacity:1; 
stroke-linecap:round; stroke-linejoin:round;">
</g>
<g style="fill:#000000; fill-opacity:0.0; 
stroke:#000000; stroke-width:59.0551; stroke-opacity:1; 
stroke-linecap:round; stroke-linejoin:round;">
<path d="M77559 75396
L77559 76577
" />
</g>
<g style="fill:#000000; fill-opacity:0.0; 
stroke:#000000; stroke-width:39.3701; stroke-opacity:1; 
stroke-linecap:round; stroke-linejoin:round;">
</g>
<g style="fill:#000000; fill-opacity:0.0; 
stroke:#000000; stroke-width:59.0551; stroke-opacity:1; 
stroke-linecap:round; stroke-linejoin:round;">
<path d="M102756 75396
L102756 77955
" />
</g>
<g style="fill:#C2C2C2; fill-opacity:0.0; 
stroke:#C2C2C2; stroke-width:59.0551; stroke-opacity:1; 
stroke-linecap:round; stroke-linejoin:round;">
<path d="M31250 9687
L31250 49375
" />
<path d="M62500 9687
L62500 49375
" />
<path d="M31250 9687
L62500 9687
" />
<path d="M31250 49375
L62500 49375
" />
<path d="M31875 18125
L31875 10625
" />
<path d="M39375 18125
L31875 18125
" />
<path d="M39375 10625
L39375 18125
" />
<path d="M31875 10625
L39375 10625
" />
<path d="M31875 33125
L31875 25625
" />
<path d="M39375 33125
L31875 33125
" />
<path d="M39375 25625
L39375 33125
" />
<path d="M31875 25625
L39375 25625
" />
<path d="M54375 18125
L54375 10625
" />
<path d="M61875 18125
L54375 18125
" />
<path d="M61875 10625
L61875 18125
" />
<path d="M54375 10625
L61875 10625
" />
<path d="M31875 25625
L31875 18125
" />
<path d="M39375 25625
L31875 25625
" />
<path d="M39375 18125
L39375 25625
" />
<path d="M31875 18125
L39375 18125
" />
<path d="M39375 18125
L39375 10625
" />
<path d="M46875 18125
L39375 18125
" />
<path d="M46875 10625
L46875 18125
" />
<path d="M39375 10625
L46875 10625
" />
<path d="M46875 18125
L46875 10625
" />
<path d="M54375 18125
L46875 18125
" />
<path d="M54375 10625
L54375 18125
" />
<path d="M46875 10625
L54375 10625
" />
<path d="M46875 25625
L46875 18125
" />
<path d="M54375 25625
L46875 25625
" />
<path d="M54375 18125
L54375 25625
" />
<path d="M46875 18125
L54375 18125
" />
<path d="M46875 40625
L46875 33125
" />
<path d="M54375 40625
L46875 40625
" />
<path d="M54375 33125
L54375 40625
" />
<path d="M46875 33125
L54375 33125
" />
<path d="M46875 48125
L46875 40625
" />
<path d="M54375 48125
L46875 48125
" />
<path d="M54375 40625
L54375 48125
" />
<path d="M46875 40625
L54375 40625
" />
<path d="M31875 48125
L31875 40625
" />
<path d="M39375 48125
L31875 48125
" />
<path d="M39375 40625
L39375 48125
" />
<path d="M31875 40625
L39375 40625
" />
<path d="M54375 18125
L61875 18125
" />
<path d="M54375 18125
L54375 33125
" />
<path d="M61875 33125
L54375 33125
" />
<path d="M61875 18125
L61875 33125
" />
<path d="M54375 33125
L61875 33125
" />
<path d="M54375 33125
L54375 48125
" />
<path d="M61875 48125
L54375 48125
" />
<path d="M61875 33125
L61875 48125
" />
<path d="M39375 48125
L39375 40625
" />
<path d="M46875 48125
L39375 48125
" />
<path d="M46875 40625
L46875 48125
" />
<path d="M39375 40625
L46875 40625
" />
<path d="M46875 40625
L46875 48125
" />
<path d="M46875 40625
L31875 40625
" />
<path d="M31875 48125
L31875 40625
" />
<path d="M46875 48125
L31875 48125
" />
</g>
<g style="fill:#C2C2C2; fill-opacity:0.0; 
stroke:#C2C2C2; stroke-width:78.7402; stroke-opacity:1; 
stroke-linecap:round; stroke-linejoin:round;">
<path d="M44525 9275
L44525 11275
" />
<path d="M41625 9275
L44525 9275
" />
<path d="M41625 11275
L41625 9275
" />
<path d="M44525 11275
L41625 11275
" />
</g>
<g style="fill:#C2C2C2; fill-opacity:0.0; 
stroke:#C2C2C2; stroke-width:59.0551; stroke-opacity:1; 
stroke-linecap:round; stroke-linejoin:round;">
<path d="M39375 25625
L39375 18125
" />
<path d="M46875 25625
L39375 25625
" />
<path d="M46875 18125
L46875 25625
" />
<path d="M39375 18125
L46875 18125
" />
<path d="M61875 25625
L54375 25625
" />
<path d="M61875 18125
L61875 25625
" />
<path d="M54375 18125
L61875 18125
" />
<path d="M54375 25625
L54375 18125
" />
<path d="M39375 33125
L39375 25625
" />
<path d="M46875 33125
L39375 33125
" />
<path d="M46875 25625
L46875 33125
" />
<path d="M39375 25625
L46875 25625
" />
<path d="M46875 33125
L46875 25625
" />
<path d="M54375 33125
L46875 33125
" />
<path d="M54375 25625
L54375 33125
" />
<path d="M46875 25625
L54375 25625
" />
<path d="M61875 33125
L54375 33125
" />
<path d="M61875 25625
L61875 33125
" />
<path d="M54375 25625
L61875 25625
" />
<path d="M54375 33125
L54375 25625
" />
<path d="M31875 40625
L31875 33125
" />
<path d="M39375 40625
L31875 40625
" />
<path d="M39375 33125
L39375 40625
" />
<path d="M31875 33125
L39375 33125
" />
<path d="M39375 40625
L39375 33125
" />
<path d="M46875 40625
L39375 40625
" />
<path d="M46875 33125
L46875 40625
" />
<path d="M39375 33125
L46875 33125
" />
<path d="M61875 40625
L54375 40625
" />
<path d="M61875 33125
L61875 40625
" />
<path d="M54375 33125
L61875 33125
" />
<path d="M54375 40625
L54375 33125
" />
<path d="M61875 48125
L54375 48125
" />
<path d="M61875 40625
L61875 48125
" />
<path d="M54375 40625
L61875 40625
" />
<path d="M54375 48125
L54375 40625
" />
<g >
</g>
<g >
</g>
<g >
</g>
<g >
</g>
<g >
</g>
<g >
</g>
<g >
</g>
<g >
</g>
<g >
</g>
<g >
</g>
<g >
</g>
<g >
</g>
<g >
</g>
<g >
</g>
<g >
</g>
<g >
</g>
<g >
</g>
<g >
</g>
<g >
</g>
<g >
</g>
<g >
</g>
<g >
</g>
<g >
</g>
<g >
</g>
<g >
</g>
<g >
</g>
<g >
</g>
<g >
</g>
<g >
</g>
<g >
</g>
<g >
</g>
<g >
</g>
<g >
</g>
<g >
</g>
<g >
</g>
<g >
</g>
<g >
</g>
<g >
</g>
<g >
</g>
<g >
</g>
<g >
</g>
<g >
</g>
<g >
</g>
<g >
</g>
</g>
<g style="fill:#C2C2C2; fill-opacity:0.0; 
stroke:#C2C2C2; stroke-width:59.0551; stroke-opacity:1; 
stroke-linecap:round; stroke-linejoin:round;">
<path d="M34640 15803
L34640 15409
L34771 15690
L34903 15409
L34903 15803
" />
<path d="M35053 15409
L35315 15803
" />
<path d="M35315 15409
L35053 15803
" />
<path d="M35465 15803
L35465 15540
" />
<path d="M35465 15615
L35484 15578
L35503 15559
L35540 15540
L35578 15540
" />
<path d="M35784 15409
L35821 15409
L35859 15428
L35878 15446
L35896 15484
L35915 15559
L35915 15653
L35896 15728
L35878 15765
L35859 15784
L35821 15803
L35784 15803
L35746 15784
L35728 15765
L35709 15728
L35690 15653
L35690 15559
L35709 15484
L35728 15446
L35746 15428
L35784 15409
" />
<path d="M36253 15784
L36215 15803
L36140 15803
L36103 15784
L36084 15765
L36065 15728
L36065 15615
L36084 15578
L36103 15559
L36140 15540
L36215 15540
L36253 15559
" />
<path d="M36496 15409
L36534 15409
L36571 15428
L36590 15446
L36609 15484
L36627 15559
L36627 15653
L36609 15728
L36590 15765
L36571 15784
L36534 15803
L36496 15803
L36459 15784
L36440 15765
L36421 15728
L36403 15653
L36403 15559
L36421 15484
L36440 15446
L36459 15428
L36496 15409
" />
<path d="M34143 11428
L34143 11034
L34275 11315
L34406 11034
L34406 11428
" />
<path d="M34556 11034
L34818 11428
" />
<path d="M34818 11034
L34556 11428
" />
<path d="M34968 11278
L35268 11278
" />
<path d="M35456 11428
L35456 11034
L35681 11428
L35681 11034
" />
<path d="M35924 11428
L35887 11409
L35868 11390
L35849 11353
L35849 11240
L35868 11203
L35887 11184
L35924 11165
L35981 11165
L36018 11184
L36037 11203
L36056 11240
L36056 11353
L36037 11390
L36018 11409
L35981 11428
L35924 11428
" />
<path d="M36412 11428
L36224 11428
L36224 11034
" />
<path d="M36543 11221
L36674 11221
" />
<path d="M36731 11428
L36543 11428
L36543 11034
L36731 11034
" />
<path d="M36899 11428
L36899 11034
L36993 11034
L37049 11053
L37087 11090
L37106 11128
L37124 11203
L37124 11259
L37106 11334
L37087 11371
L37049 11409
L36993 11428
L36899 11428
" />
<path d="M34640 30803
L34640 30409
L34771 30690
L34903 30409
L34903 30803
" />
<path d="M35053 30409
L35315 30803
" />
<path d="M35315 30409
L35053 30803
" />
<path d="M35465 30803
L35465 30540
" />
<path d="M35465 30615
L35484 30578
L35503 30559
L35540 30540
L35578 30540
" />
<path d="M35690 30446
L35709 30428
L35746 30409
L35840 30409
L35878 30428
L35896 30446
L35915 30484
L35915 30521
L35896 30578
L35671 30803
L35915 30803
" />
<path d="M36253 30784
L36215 30803
L36140 30803
L36103 30784
L36084 30765
L36065 30728
L36065 30615
L36084 30578
L36103 30559
L36140 30540
L36215 30540
L36253 30559
" />
<path d="M36496 30409
L36534 30409
L36571 30428
L36590 30446
L36609 30484
L36627 30559
L36627 30653
L36609 30728
L36590 30765
L36571 30784
L36534 30803
L36496 30803
L36459 30784
L36440 30765
L36421 30728
L36403 30653
L36403 30559
L36421 30484
L36440 30446
L36459 30428
L36496 30409
" />
<path d="M34143 26428
L34143 26034
L34275 26315
L34406 26034
L34406 26428
" />
<path d="M34556 26034
L34818 26428
" />
<path d="M34818 26034
L34556 26428
" />
<path d="M34968 26278
L35268 26278
" />
<path d="M35456 26428
L35456 26034
L35681 26428
L35681 26034
" />
<path d="M35924 26428
L35887 26409
L35868 26390
L35849 26353
L35849 26240
L35868 26203
L35887 26184
L35924 26165
L35981 26165
L36018 26184
L36037 26203
L36056 26240
L36056 26353
L36037 26390
L36018 26409
L35981 26428
L35924 26428
" />
<path d="M36412 26428
L36224 26428
L36224 26034
" />
<path d="M36543 26221
L36674 26221
" />
<path d="M36731 26428
L36543 26428
L36543 26034
L36731 26034
" />
<path d="M36899 26428
L36899 26034
L36993 26034
L37049 26053
L37087 26090
L37106 26128
L37124 26203
L37124 26259
L37106 26334
L37087 26371
L37049 26409
L36993 26428
L36899 26428
" />
<path d="M57140 15803
L57140 15409
L57271 15690
L57403 15409
L57403 15803
" />
<path d="M57553 15409
L57815 15803
" />
<path d="M57815 15409
L57553 15803
" />
<path d="M57965 15803
L57965 15540
" />
<path d="M57965 15615
L57984 15578
L58003 15559
L58040 15540
L58078 15540
" />
<path d="M58284 15409
L58321 15409
L58359 15428
L58378 15446
L58396 15484
L58415 15559
L58415 15653
L58396 15728
L58378 15765
L58359 15784
L58321 15803
L58284 15803
L58246 15784
L58228 15765
L58209 15728
L58190 15653
L58190 15559
L58209 15484
L58228 15446
L58246 15428
L58284 15409
" />
<path d="M58753 15784
L58715 15803
L58640 15803
L58603 15784
L58584 15765
L58565 15728
L58565 15615
L58584 15578
L58603 15559
L58640 15540
L58715 15540
L58753 15559
" />
<path d="M58884 15409
L59127 15409
L58996 15559
L59053 15559
L59090 15578
L59109 15596
L59127 15634
L59127 15728
L59109 15765
L59090 15784
L59053 15803
L58940 15803
L58903 15784
L58884 15765
" />
<path d="M56643 11428
L56643 11034
L56775 11315
L56906 11034
L56906 11428
" />
<path d="M57056 11034
L57318 11428
" />
<path d="M57318 11034
L57056 11428
" />
<path d="M57468 11278
L57768 11278
" />
<path d="M57956 11428
L57956 11034
L58181 11428
L58181 11034
" />
<path d="M58424 11428
L58387 11409
L58368 11390
L58349 11353
L58349 11240
L58368 11203
L58387 11184
L58424 11165
L58481 11165
L58518 11184
L58537 11203
L58556 11240
L58556 11353
L58537 11390
L58518 11409
L58481 11428
L58424 11428
" />
<path d="M58912 11428
L58724 11428
L58724 11034
" />
<path d="M59043 11221
L59174 11221
" />
<path d="M59231 11428
L59043 11428
L59043 11034
L59231 11034
" />
<path d="M59399 11428
L59399 11034
L59493 11034
L59549 11053
L59587 11090
L59606 11128
L59624 11203
L59624 11259
L59606 11334
L59587 11371
L59549 11409
L59493 11428
L59399 11428
" />
<path d="M34640 23303
L34640 22909
L34771 23190
L34903 22909
L34903 23303
" />
<path d="M35053 22909
L35315 23303
" />
<path d="M35315 22909
L35053 23303
" />
<path d="M35465 23303
L35465 23040
" />
<path d="M35465 23115
L35484 23078
L35503 23059
L35540 23040
L35578 23040
" />
<path d="M35915 23303
L35690 23303
" />
<path d="M35803 23303
L35803 22909
L35765 22965
L35728 23003
L35690 23021
" />
<path d="M36253 23284
L36215 23303
L36140 23303
L36103 23284
L36084 23265
L36065 23228
L36065 23115
L36084 23078
L36103 23059
L36140 23040
L36215 23040
L36253 23059
" />
<path d="M36496 22909
L36534 22909
L36571 22928
L36590 22946
L36609 22984
L36627 23059
L36627 23153
L36609 23228
L36590 23265
L36571 23284
L36534 23303
L36496 23303
L36459 23284
L36440 23265
L36421 23228
L36403 23153
L36403 23059
L36421 22984
L36440 22946
L36459 22928
L36496 22909
" />
<path d="M34143 18928
L34143 18534
L34275 18815
L34406 18534
L34406 18928
" />
<path d="M34556 18534
L34818 18928
" />
<path d="M34818 18534
L34556 18928
" />
<path d="M34968 18778
L35268 18778
" />
<path d="M35456 18928
L35456 18534
L35681 18928
L35681 18534
" />
<path d="M35924 18928
L35887 18909
L35868 18890
L35849 18853
L35849 18740
L35868 18703
L35887 18684
L35924 18665
L35981 18665
L36018 18684
L36037 18703
L36056 18740
L36056 18853
L36037 18890
L36018 18909
L35981 18928
L35924 18928
" />
<path d="M36412 18928
L36224 18928
L36224 18534
" />
<path d="M36543 18721
L36674 18721
" />
<path d="M36731 18928
L36543 18928
L36543 18534
L36731 18534
" />
<path d="M36899 18928
L36899 18534
L36993 18534
L37049 18553
L37087 18590
L37106 18628
L37124 18703
L37124 18759
L37106 18834
L37087 18871
L37049 18909
L36993 18928
L36899 18928
" />
<path d="M42140 15803
L42140 15409
L42271 15690
L42403 15409
L42403 15803
" />
<path d="M42553 15409
L42815 15803
" />
<path d="M42815 15409
L42553 15803
" />
<path d="M42965 15803
L42965 15540
" />
<path d="M42965 15615
L42984 15578
L43003 15559
L43040 15540
L43078 15540
" />
<path d="M43284 15409
L43321 15409
L43359 15428
L43378 15446
L43396 15484
L43415 15559
L43415 15653
L43396 15728
L43378 15765
L43359 15784
L43321 15803
L43284 15803
L43246 15784
L43228 15765
L43209 15728
L43190 15653
L43190 15559
L43209 15484
L43228 15446
L43246 15428
L43284 15409
" />
<path d="M43753 15784
L43715 15803
L43640 15803
L43603 15784
L43584 15765
L43565 15728
L43565 15615
L43584 15578
L43603 15559
L43640 15540
L43715 15540
L43753 15559
" />
<path d="M44127 15803
L43903 15803
" />
<path d="M44015 15803
L44015 15409
L43978 15465
L43940 15503
L43903 15521
" />
<path d="M41643 11428
L41643 11034
L41775 11315
L41906 11034
L41906 11428
" />
<path d="M42056 11034
L42318 11428
" />
<path d="M42318 11034
L42056 11428
" />
<path d="M42468 11278
L42768 11278
" />
<path d="M42956 11428
L42956 11034
L43181 11428
L43181 11034
" />
<path d="M43424 11428
L43387 11409
L43368 11390
L43349 11353
L43349 11240
L43368 11203
L43387 11184
L43424 11165
L43481 11165
L43518 11184
L43537 11203
L43556 11240
L43556 11353
L43537 11390
L43518 11409
L43481 11428
L43424 11428
" />
<path d="M43912 11428
L43724 11428
L43724 11034
" />
<path d="M44043 11221
L44174 11221
" />
<path d="M44231 11428
L44043 11428
L44043 11034
L44231 11034
" />
<path d="M44399 11428
L44399 11034
L44493 11034
L44549 11053
L44587 11090
L44606 11128
L44624 11203
L44624 11259
L44606 11334
L44587 11371
L44549 11409
L44493 11428
L44399 11428
" />
<path d="M49640 15803
L49640 15409
L49771 15690
L49903 15409
L49903 15803
" />
<path d="M50053 15409
L50315 15803
" />
<path d="M50315 15409
L50053 15803
" />
<path d="M50465 15803
L50465 15540
" />
<path d="M50465 15615
L50484 15578
L50503 15559
L50540 15540
L50578 15540
" />
<path d="M50784 15409
L50821 15409
L50859 15428
L50878 15446
L50896 15484
L50915 15559
L50915 15653
L50896 15728
L50878 15765
L50859 15784
L50821 15803
L50784 15803
L50746 15784
L50728 15765
L50709 15728
L50690 15653
L50690 15559
L50709 15484
L50728 15446
L50746 15428
L50784 15409
" />
<path d="M51253 15784
L51215 15803
L51140 15803
L51103 15784
L51084 15765
L51065 15728
L51065 15615
L51084 15578
L51103 15559
L51140 15540
L51215 15540
L51253 15559
" />
<path d="M51403 15446
L51421 15428
L51459 15409
L51553 15409
L51590 15428
L51609 15446
L51627 15484
L51627 15521
L51609 15578
L51384 15803
L51627 15803
" />
<path d="M49143 11428
L49143 11034
L49275 11315
L49406 11034
L49406 11428
" />
<path d="M49556 11034
L49818 11428
" />
<path d="M49818 11034
L49556 11428
" />
<path d="M49968 11278
L50268 11278
" />
<path d="M50456 11428
L50456 11034
L50681 11428
L50681 11034
" />
<path d="M50924 11428
L50887 11409
L50868 11390
L50849 11353
L50849 11240
L50868 11203
L50887 11184
L50924 11165
L50981 11165
L51018 11184
L51037 11203
L51056 11240
L51056 11353
L51037 11390
L51018 11409
L50981 11428
L50924 11428
" />
<path d="M51412 11428
L51224 11428
L51224 11034
" />
<path d="M51543 11221
L51674 11221
" />
<path d="M51731 11428
L51543 11428
L51543 11034
L51731 11034
" />
<path d="M51899 11428
L51899 11034
L51993 11034
L52049 11053
L52087 11090
L52106 11128
L52124 11203
L52124 11259
L52106 11334
L52087 11371
L52049 11409
L51993 11428
L51899 11428
" />
<path d="M49640 23303
L49640 22909
L49771 23190
L49903 22909
L49903 23303
" />
<path d="M50053 22909
L50315 23303
" />
<path d="M50315 22909
L50053 23303
" />
<path d="M50465 23303
L50465 23040
" />
<path d="M50465 23115
L50484 23078
L50503 23059
L50540 23040
L50578 23040
" />
<path d="M50915 23303
L50690 23303
" />
<path d="M50803 23303
L50803 22909
L50765 22965
L50728 23003
L50690 23021
" />
<path d="M51253 23284
L51215 23303
L51140 23303
L51103 23284
L51084 23265
L51065 23228
L51065 23115
L51084 23078
L51103 23059
L51140 23040
L51215 23040
L51253 23059
" />
<path d="M51403 22946
L51421 22928
L51459 22909
L51553 22909
L51590 22928
L51609 22946
L51627 22984
L51627 23021
L51609 23078
L51384 23303
L51627 23303
" />
<path d="M49143 18928
L49143 18534
L49275 18815
L49406 18534
L49406 18928
" />
<path d="M49556 18534
L49818 18928
" />
<path d="M49818 18534
L49556 18928
" />
<path d="M49968 18778
L50268 18778
" />
<path d="M50456 18928
L50456 18534
L50681 18928
L50681 18534
" />
<path d="M50924 18928
L50887 18909
L50868 18890
L50849 18853
L50849 18740
L50868 18703
L50887 18684
L50924 18665
L50981 18665
L51018 18684
L51037 18703
L51056 18740
L51056 18853
L51037 18890
L51018 18909
L50981 18928
L50924 18928
" />
<path d="M51412 18928
L51224 18928
L51224 18534
" />
<path d="M51543 18721
L51674 18721
" />
<path d="M51731 18928
L51543 18928
L51543 18534
L51731 18534
" />
<path d="M51899 18928
L51899 18534
L51993 18534
L52049 18553
L52087 18590
L52106 18628
L52124 18703
L52124 18759
L52106 18834
L52087 18871
L52049 18909
L51993 18928
L51899 18928
" />
<path d="M49640 38303
L49640 37909
L49771 38190
L49903 37909
L49903 38303
" />
<path d="M50053 37909
L50315 38303
" />
<path d="M50315 37909
L50053 38303
" />
<path d="M50465 38303
L50465 38040
" />
<path d="M50465 38115
L50484 38078
L50503 38059
L50540 38040
L50578 38040
" />
<path d="M50671 37909
L50915 37909
L50784 38059
L50840 38059
L50878 38078
L50896 38096
L50915 38134
L50915 38228
L50896 38265
L50878 38284
L50840 38303
L50728 38303
L50690 38284
L50671 38265
" />
<path d="M51253 38284
L51215 38303
L51140 38303
L51103 38284
L51084 38265
L51065 38228
L51065 38115
L51084 38078
L51103 38059
L51140 38040
L51215 38040
L51253 38059
" />
<path d="M51403 37946
L51421 37928
L51459 37909
L51553 37909
L51590 37928
L51609 37946
L51627 37984
L51627 38021
L51609 38078
L51384 38303
L51627 38303
" />
<path d="M49143 33928
L49143 33534
L49275 33815
L49406 33534
L49406 33928
" />
<path d="M49556 33534
L49818 33928
" />
<path d="M49818 33534
L49556 33928
" />
<path d="M49968 33778
L50268 33778
" />
<path d="M50456 33928
L50456 33534
L50681 33928
L50681 33534
" />
<path d="M50924 33928
L50887 33909
L50868 33890
L50849 33853
L50849 33740
L50868 33703
L50887 33684
L50924 33665
L50981 33665
L51018 33684
L51037 33703
L51056 33740
L51056 33853
L51037 33890
L51018 33909
L50981 33928
L50924 33928
" />
<path d="M51412 33928
L51224 33928
L51224 33534
" />
<path d="M51543 33721
L51674 33721
" />
<path d="M51731 33928
L51543 33928
L51543 33534
L51731 33534
" />
<path d="M51899 33928
L51899 33534
L51993 33534
L52049 33553
L52087 33590
L52106 33628
L52124 33703
L52124 33759
L52106 33834
L52087 33871
L52049 33909
L51993 33928
L51899 33928
" />
<path d="M49640 45803
L49640 45409
L49771 45690
L49903 45409
L49903 45803
" />
<path d="M50053 45409
L50315 45803
" />
<path d="M50315 45409
L50053 45803
" />
<path d="M50465 45803
L50465 45540
" />
<path d="M50465 45615
L50484 45578
L50503 45559
L50540 45540
L50578 45540
" />
<path d="M50878 45540
L50878 45803
" />
<path d="M50784 45390
L50690 45671
L50934 45671
" />
<path d="M51253 45784
L51215 45803
L51140 45803
L51103 45784
L51084 45765
L51065 45728
L51065 45615
L51084 45578
L51103 45559
L51140 45540
L51215 45540
L51253 45559
" />
<path d="M51403 45446
L51421 45428
L51459 45409
L51553 45409
L51590 45428
L51609 45446
L51627 45484
L51627 45521
L51609 45578
L51384 45803
L51627 45803
" />
<path d="M49143 41428
L49143 41034
L49275 41315
L49406 41034
L49406 41428
" />
<path d="M49556 41034
L49818 41428
" />
<path d="M49818 41034
L49556 41428
" />
<path d="M49968 41278
L50268 41278
" />
<path d="M50456 41428
L50456 41034
L50681 41428
L50681 41034
" />
<path d="M50924 41428
L50887 41409
L50868 41390
L50849 41353
L50849 41240
L50868 41203
L50887 41184
L50924 41165
L50981 41165
L51018 41184
L51037 41203
L51056 41240
L51056 41353
L51037 41390
L51018 41409
L50981 41428
L50924 41428
" />
<path d="M51412 41428
L51224 41428
L51224 41034
" />
<path d="M51543 41221
L51674 41221
" />
<path d="M51731 41428
L51543 41428
L51543 41034
L51731 41034
" />
<path d="M51899 41428
L51899 41034
L51993 41034
L52049 41053
L52087 41090
L52106 41128
L52124 41203
L52124 41259
L52106 41334
L52087 41371
L52049 41409
L51993 41428
L51899 41428
" />
<path d="M34640 45803
L34640 45409
L34771 45690
L34903 45409
L34903 45803
" />
<path d="M35053 45409
L35315 45803
" />
<path d="M35315 45409
L35053 45803
" />
<path d="M35465 45803
L35465 45540
" />
<path d="M35465 45615
L35484 45578
L35503 45559
L35540 45540
L35578 45540
" />
<path d="M35878 45540
L35878 45803
" />
<path d="M35784 45390
L35690 45671
L35934 45671
" />
<path d="M36253 45784
L36215 45803
L36140 45803
L36103 45784
L36084 45765
L36065 45728
L36065 45615
L36084 45578
L36103 45559
L36140 45540
L36215 45540
L36253 45559
" />
<path d="M36496 45409
L36534 45409
L36571 45428
L36590 45446
L36609 45484
L36627 45559
L36627 45653
L36609 45728
L36590 45765
L36571 45784
L36534 45803
L36496 45803
L36459 45784
L36440 45765
L36421 45728
L36403 45653
L36403 45559
L36421 45484
L36440 45446
L36459 45428
L36496 45409
" />
<path d="M34143 41428
L34143 41034
L34275 41315
L34406 41034
L34406 41428
" />
<path d="M34556 41034
L34818 41428
" />
<path d="M34818 41034
L34556 41428
" />
<path d="M34968 41278
L35268 41278
" />
<path d="M35456 41428
L35456 41034
L35681 41428
L35681 41034
" />
<path d="M35924 41428
L35887 41409
L35868 41390
L35849 41353
L35849 41240
L35868 41203
L35887 41184
L35924 41165
L35981 41165
L36018 41184
L36037 41203
L36056 41240
L36056 41353
L36037 41390
L36018 41409
L35981 41428
L35924 41428
" />
<path d="M36412 41428
L36224 41428
L36224 41034
" />
<path d="M36543 41221
L36674 41221
" />
<path d="M36731 41428
L36543 41428
L36543 41034
L36731 41034
" />
<path d="M36899 41428
L36899 41034
L36993 41034
L37049 41053
L37087 41090
L37106 41128
L37124 41203
L37124 41259
L37106 41334
L37087 41371
L37049 41409
L36993 41428
L36899 41428
" />
<path d="M57053 27124
L56659 27124
L56940 26993
L56659 26862
L57053 26862
" />
<path d="M56659 26712
L57053 26449
" />
<path d="M56659 26449
L57053 26712
" />
<path d="M57053 26299
L56790 26299
" />
<path d="M56865 26299
L56828 26281
L56809 26262
L56790 26224
L56790 26187
" />
<path d="M56696 26074
L56678 26056
L56659 26018
L56659 25924
L56678 25887
L56696 25868
L56734 25849
L56771 25849
L56828 25868
L57053 26093
L57053 25849
" />
<path d="M57034 25512
L57053 25550
L57053 25625
L57034 25662
L57015 25681
L56978 25699
L56865 25699
L56828 25681
L56809 25662
L56790 25625
L56790 25550
L56809 25512
" />
<path d="M56659 25381
L56659 25137
L56809 25268
L56809 25212
L56828 25175
L56846 25156
L56884 25137
L56978 25137
L57015 25156
L57034 25175
L57053 25212
L57053 25325
L57034 25362
L57015 25381
" />
<path d="M57090 25062
L57090 24762
" />
<path d="M56790 24500
L57053 24500
" />
<path d="M56790 24668
L56996 24668
L57034 24650
L57053 24612
L57053 24556
L57034 24518
L57015 24500
" />
<path d="M56696 24331
L56678 24312
L56659 24275
L56659 24181
L56678 24143
L56696 24125
L56734 24106
L56771 24106
L56828 24125
L57053 24350
L57053 24106
" />
<path d="M61428 27106
L61034 27106
L61315 26974
L61034 26843
L61428 26843
" />
<path d="M61034 26693
L61428 26431
" />
<path d="M61034 26431
L61428 26693
" />
<path d="M61278 26281
L61278 25981
" />
<path d="M61428 25793
L61034 25793
L61428 25568
L61034 25568
" />
<path d="M61428 25325
L61409 25362
L61390 25381
L61353 25400
L61240 25400
L61203 25381
L61184 25362
L61165 25325
L61165 25268
L61184 25231
L61203 25212
L61240 25193
L61353 25193
L61390 25212
L61409 25231
L61428 25268
L61428 25325
" />
<path d="M61428 24837
L61428 25025
L61034 25025
" />
<path d="M61221 24706
L61221 24575
" />
<path d="M61428 24518
L61428 24706
L61034 24706
L61034 24518
" />
<path d="M61428 24350
L61034 24350
L61034 24256
L61053 24200
L61090 24162
L61128 24143
L61203 24125
L61259 24125
L61334 24143
L61371 24162
L61409 24200
L61428 24256
L61428 24350
" />
<path d="M57053 42124
L56659 42124
L56940 41993
L56659 41862
L57053 41862
" />
<path d="M56659 41712
L57053 41449
" />
<path d="M56659 41449
L57053 41712
" />
<path d="M57053 41299
L56790 41299
" />
<path d="M56865 41299
L56828 41281
L56809 41262
L56790 41224
L56790 41187
" />
<path d="M56790 40887
L57053 40887
" />
<path d="M56640 40981
L56921 41074
L56921 40831
" />
<path d="M57034 40512
L57053 40550
L57053 40625
L57034 40662
L57015 40681
L56978 40699
L56865 40699
L56828 40681
L56809 40662
L56790 40625
L56790 40550
L56809 40512
" />
<path d="M56659 40381
L56659 40137
L56809 40268
L56809 40212
L56828 40175
L56846 40156
L56884 40137
L56978 40137
L57015 40156
L57034 40175
L57053 40212
L57053 40325
L57034 40362
L57015 40381
" />
<path d="M57090 40062
L57090 39762
" />
<path d="M56790 39500
L57053 39500
" />
<path d="M56790 39668
L56996 39668
L57034 39650
L57053 39612
L57053 39556
L57034 39518
L57015 39500
" />
<path d="M56696 39331
L56678 39312
L56659 39275
L56659 39181
L56678 39143
L56696 39125
L56734 39106
L56771 39106
L56828 39125
L57053 39350
L57053 39106
" />
<path d="M61428 42106
L61034 42106
L61315 41974
L61034 41843
L61428 41843
" />
<path d="M61034 41693
L61428 41431
" />
<path d="M61034 41431
L61428 41693
" />
<path d="M61278 41281
L61278 40981
" />
<path d="M61428 40793
L61034 40793
L61428 40568
L61034 40568
" />
<path d="M61428 40325
L61409 40362
L61390 40381
L61353 40400
L61240 40400
L61203 40381
L61184 40362
L61165 40325
L61165 40268
L61184 40231
L61203 40212
L61240 40193
L61353 40193
L61390 40212
L61409 40231
L61428 40268
L61428 40325
" />
<path d="M61428 39837
L61428 40025
L61034 40025
" />
<path d="M61221 39706
L61221 39575
" />
<path d="M61428 39518
L61428 39706
L61034 39706
L61034 39518
" />
<path d="M61428 39350
L61034 39350
L61034 39256
L61053 39200
L61090 39162
L61128 39143
L61203 39125
L61259 39125
L61334 39143
L61371 39162
L61409 39200
L61428 39256
L61428 39350
" />
<path d="M42140 45803
L42140 45409
L42271 45690
L42403 45409
L42403 45803
" />
<path d="M42553 45409
L42815 45803
" />
<path d="M42815 45409
L42553 45803
" />
<path d="M42965 45803
L42965 45540
" />
<path d="M42965 45615
L42984 45578
L43003 45559
L43040 45540
L43078 45540
" />
<path d="M43378 45540
L43378 45803
" />
<path d="M43284 45390
L43190 45671
L43434 45671
" />
<path d="M43753 45784
L43715 45803
L43640 45803
L43603 45784
L43584 45765
L43565 45728
L43565 45615
L43584 45578
L43603 45559
L43640 45540
L43715 45540
L43753 45559
" />
<path d="M44127 45803
L43903 45803
" />
<path d="M44015 45803
L44015 45409
L43978 45465
L43940 45503
L43903 45521
" />
<path d="M41643 41428
L41643 41034
L41775 41315
L41906 41034
L41906 41428
" />
<path d="M42056 41034
L42318 41428
" />
<path d="M42318 41034
L42056 41428
" />
<path d="M42468 41278
L42768 41278
" />
<path d="M42956 41428
L42956 41034
L43181 41428
L43181 41034
" />
<path d="M43424 41428
L43387 41409
L43368 41390
L43349 41353
L43349 41240
L43368 41203
L43387 41184
L43424 41165
L43481 41165
L43518 41184
L43537 41203
L43556 41240
L43556 41353
L43537 41390
L43518 41409
L43481 41428
L43424 41428
" />
<path d="M43912 41428
L43724 41428
L43724 41034
" />
<path d="M44043 41221
L44174 41221
" />
<path d="M44231 41428
L44043 41428
L44043 41034
L44231 41034
" />
<path d="M44399 41428
L44399 41034
L44493 41034
L44549 41053
L44587 41090
L44606 41128
L44624 41203
L44624 41259
L44606 41334
L44587 41371
L44549 41409
L44493 41428
L44399 41428
" />
<path d="M37875 43303
L37875 42909
L38006 43190
L38137 42909
L38137 43303
" />
<path d="M38287 42909
L38550 43303
" />
<path d="M38550 42909
L38287 43303
" />
<path d="M38700 43303
L38700 43040
" />
<path d="M38700 43115
L38718 43078
L38737 43059
L38775 43040
L38812 43040
" />
<path d="M39112 43040
L39112 43303
" />
<path d="M39018 42890
L38925 43171
L39168 43171
" />
<path d="M39487 43284
L39449 43303
L39375 43303
L39337 43284
L39318 43265
L39300 43228
L39300 43115
L39318 43078
L39337 43059
L39375 43040
L39449 43040
L39487 43059
" />
<path d="M39731 42909
L39768 42909
L39806 42928
L39824 42946
L39843 42984
L39862 43059
L39862 43153
L39843 43228
L39824 43265
L39806 43284
L39768 43303
L39731 43303
L39693 43284
L39674 43265
L39656 43228
L39637 43153
L39637 43059
L39656 42984
L39674 42946
L39693 42928
L39731 42909
" />
<path d="M39937 43340
L40237 43340
" />
<path d="M40499 43040
L40499 43303
" />
<path d="M40331 43040
L40331 43246
L40349 43284
L40387 43303
L40443 43303
L40481 43284
L40499 43265
" />
<path d="M40668 42946
L40687 42928
L40724 42909
L40818 42909
L40856 42928
L40874 42946
L40893 42984
L40893 43021
L40874 43078
L40649 43303
L40893 43303
" />
<path d="M37893 47678
L37893 47284
L38025 47565
L38156 47284
L38156 47678
" />
<path d="M38306 47284
L38568 47678
" />
<path d="M38568 47284
L38306 47678
" />
<path d="M38718 47528
L39018 47528
" />
<path d="M39206 47678
L39206 47284
L39431 47678
L39431 47284
" />
<path d="M39674 47678
L39637 47659
L39618 47640
L39599 47603
L39599 47490
L39618 47453
L39637 47434
L39674 47415
L39731 47415
L39768 47434
L39787 47453
L39806 47490
L39806 47603
L39787 47640
L39768 47659
L39731 47678
L39674 47678
" />
<path d="M40162 47678
L39974 47678
L39974 47284
" />
<path d="M40293 47471
L40424 47471
" />
<path d="M40481 47678
L40293 47678
L40293 47284
L40481 47284
" />
<path d="M40649 47678
L40649 47284
L40743 47284
L40799 47303
L40837 47340
L40856 47378
L40874 47453
L40874 47509
L40856 47584
L40837 47621
L40799 47659
L40743 47678
L40649 47678
" />
<path d="M42140 23303
L42140 22909
L42271 23190
L42403 22909
L42403 23303
" />
<path d="M42553 22909
L42815 23303
" />
<path d="M42815 22909
L42553 23303
" />
<path d="M42965 23303
L42965 23040
" />
<path d="M42965 23115
L42984 23078
L43003 23059
L43040 23040
L43078 23040
" />
<path d="M43415 23303
L43190 23303
" />
<path d="M43303 23303
L43303 22909
L43265 22965
L43228 23003
L43190 23021
" />
<path d="M43753 23284
L43715 23303
L43640 23303
L43603 23284
L43584 23265
L43565 23228
L43565 23115
L43584 23078
L43603 23059
L43640 23040
L43715 23040
L43753 23059
" />
<path d="M44127 23303
L43903 23303
" />
<path d="M44015 23303
L44015 22909
L43978 22965
L43940 23003
L43903 23021
" />
<path d="M41643 18928
L41643 18534
L41775 18815
L41906 18534
L41906 18928
" />
<path d="M42056 18534
L42318 18928
" />
<path d="M42318 18534
L42056 18928
" />
<path d="M42468 18778
L42768 18778
" />
<path d="M42956 18928
L42956 18534
L43181 18928
L43181 18534
" />
<path d="M43424 18928
L43387 18909
L43368 18890
L43349 18853
L43349 18740
L43368 18703
L43387 18684
L43424 18665
L43481 18665
L43518 18684
L43537 18703
L43556 18740
L43556 18853
L43537 18890
L43518 18909
L43481 18928
L43424 18928
" />
<path d="M43912 18928
L43724 18928
L43724 18534
" />
<path d="M44043 18721
L44174 18721
" />
<path d="M44231 18928
L44043 18928
L44043 18534
L44231 18534
" />
<path d="M44399 18928
L44399 18534
L44493 18534
L44549 18553
L44587 18590
L44606 18628
L44624 18703
L44624 18759
L44606 18834
L44587 18871
L44549 18909
L44493 18928
L44399 18928
" />
<path d="M59553 22859
L59159 22859
L59440 22728
L59159 22596
L59553 22596
" />
<path d="M59159 22446
L59553 22184
" />
<path d="M59159 22184
L59553 22446
" />
<path d="M59553 22034
L59290 22034
" />
<path d="M59365 22034
L59328 22015
L59309 21996
L59290 21959
L59290 21921
" />
<path d="M59553 21584
L59553 21809
" />
<path d="M59553 21696
L59159 21696
L59215 21734
L59253 21771
L59271 21809
" />
<path d="M59534 21246
L59553 21284
L59553 21359
L59534 21396
L59515 21415
L59478 21434
L59365 21434
L59328 21415
L59309 21396
L59290 21359
L59290 21284
L59309 21246
" />
<path d="M59159 21115
L59159 20872
L59309 21003
L59309 20946
L59328 20909
L59346 20890
L59384 20872
L59478 20872
L59515 20890
L59534 20909
L59553 20946
L59553 21059
L59534 21096
L59515 21115
" />
<path d="M55178 23356
L54784 23356
L55065 23224
L54784 23093
L55178 23093
" />
<path d="M54784 22943
L55178 22681
" />
<path d="M54784 22681
L55178 22943
" />
<path d="M55028 22531
L55028 22231
" />
<path d="M55178 22043
L54784 22043
L55178 21818
L54784 21818
" />
<path d="M55178 21575
L55159 21612
L55140 21631
L55103 21650
L54990 21650
L54953 21631
L54934 21612
L54915 21575
L54915 21518
L54934 21481
L54953 21462
L54990 21443
L55103 21443
L55140 21462
L55159 21481
L55178 21518
L55178 21575
" />
<path d="M55178 21087
L55178 21275
L54784 21275
" />
<path d="M54971 20956
L54971 20825
" />
<path d="M55178 20768
L55178 20956
L54784 20956
L54784 20768
" />
<path d="M55178 20600
L54784 20600
L54784 20506
L54803 20450
L54840 20412
L54878 20393
L54953 20375
L55009 20375
L55084 20393
L55121 20412
L55159 20450
L55178 20506
L55178 20600
" />
<path d="M42140 30803
L42140 30409
L42271 30690
L42403 30409
L42403 30803
" />
<path d="M42553 30409
L42815 30803
" />
<path d="M42815 30409
L42553 30803
" />
<path d="M42965 30803
L42965 30540
" />
<path d="M42965 30615
L42984 30578
L43003 30559
L43040 30540
L43078 30540
" />
<path d="M43190 30446
L43209 30428
L43246 30409
L43340 30409
L43378 30428
L43396 30446
L43415 30484
L43415 30521
L43396 30578
L43171 30803
L43415 30803
" />
<path d="M43753 30784
L43715 30803
L43640 30803
L43603 30784
L43584 30765
L43565 30728
L43565 30615
L43584 30578
L43603 30559
L43640 30540
L43715 30540
L43753 30559
" />
<path d="M44127 30803
L43903 30803
" />
<path d="M44015 30803
L44015 30409
L43978 30465
L43940 30503
L43903 30521
" />
<path d="M41643 26428
L41643 26034
L41775 26315
L41906 26034
L41906 26428
" />
<path d="M42056 26034
L42318 26428
" />
<path d="M42318 26034
L42056 26428
" />
<path d="M42468 26278
L42768 26278
" />
<path d="M42956 26428
L42956 26034
L43181 26428
L43181 26034
" />
<path d="M43424 26428
L43387 26409
L43368 26390
L43349 26353
L43349 26240
L43368 26203
L43387 26184
L43424 26165
L43481 26165
L43518 26184
L43537 26203
L43556 26240
L43556 26353
L43537 26390
L43518 26409
L43481 26428
L43424 26428
" />
<path d="M43912 26428
L43724 26428
L43724 26034
" />
<path d="M44043 26221
L44174 26221
" />
<path d="M44231 26428
L44043 26428
L44043 26034
L44231 26034
" />
<path d="M44399 26428
L44399 26034
L44493 26034
L44549 26053
L44587 26090
L44606 26128
L44624 26203
L44624 26259
L44606 26334
L44587 26371
L44549 26409
L44493 26428
L44399 26428
" />
<path d="M49640 30803
L49640 30409
L49771 30690
L49903 30409
L49903 30803
" />
<path d="M50053 30409
L50315 30803
" />
<path d="M50315 30409
L50053 30803
" />
<path d="M50465 30803
L50465 30540
" />
<path d="M50465 30615
L50484 30578
L50503 30559
L50540 30540
L50578 30540
" />
<path d="M50690 30446
L50709 30428
L50746 30409
L50840 30409
L50878 30428
L50896 30446
L50915 30484
L50915 30521
L50896 30578
L50671 30803
L50915 30803
" />
<path d="M51253 30784
L51215 30803
L51140 30803
L51103 30784
L51084 30765
L51065 30728
L51065 30615
L51084 30578
L51103 30559
L51140 30540
L51215 30540
L51253 30559
" />
<path d="M51403 30446
L51421 30428
L51459 30409
L51553 30409
L51590 30428
L51609 30446
L51627 30484
L51627 30521
L51609 30578
L51384 30803
L51627 30803
" />
<path d="M49143 26428
L49143 26034
L49275 26315
L49406 26034
L49406 26428
" />
<path d="M49556 26034
L49818 26428
" />
<path d="M49818 26034
L49556 26428
" />
<path d="M49968 26278
L50268 26278
" />
<path d="M50456 26428
L50456 26034
L50681 26428
L50681 26034
" />
<path d="M50924 26428
L50887 26409
L50868 26390
L50849 26353
L50849 26240
L50868 26203
L50887 26184
L50924 26165
L50981 26165
L51018 26184
L51037 26203
L51056 26240
L51056 26353
L51037 26390
L51018 26409
L50981 26428
L50924 26428
" />
<path d="M51412 26428
L51224 26428
L51224 26034
" />
<path d="M51543 26221
L51674 26221
" />
<path d="M51731 26428
L51543 26428
L51543 26034
L51731 26034
" />
<path d="M51899 26428
L51899 26034
L51993 26034
L52049 26053
L52087 26090
L52106 26128
L52124 26203
L52124 26259
L52106 26334
L52087 26371
L52049 26409
L51993 26428
L51899 26428
" />
<path d="M59553 30359
L59159 30359
L59440 30228
L59159 30096
L59553 30096
" />
<path d="M59159 29946
L59553 29684
" />
<path d="M59159 29684
L59553 29946
" />
<path d="M59553 29534
L59290 29534
" />
<path d="M59365 29534
L59328 29515
L59309 29496
L59290 29459
L59290 29421
" />
<path d="M59196 29309
L59178 29290
L59159 29253
L59159 29159
L59178 29121
L59196 29103
L59234 29084
L59271 29084
L59328 29103
L59553 29328
L59553 29084
" />
<path d="M59534 28746
L59553 28784
L59553 28859
L59534 28896
L59515 28915
L59478 28934
L59365 28934
L59328 28915
L59309 28896
L59290 28859
L59290 28784
L59309 28746
" />
<path d="M59159 28615
L59159 28372
L59309 28503
L59309 28446
L59328 28409
L59346 28390
L59384 28372
L59478 28372
L59515 28390
L59534 28409
L59553 28446
L59553 28559
L59534 28596
L59515 28615
" />
<path d="M55178 30856
L54784 30856
L55065 30724
L54784 30593
L55178 30593
" />
<path d="M54784 30443
L55178 30181
" />
<path d="M54784 30181
L55178 30443
" />
<path d="M55028 30031
L55028 29731
" />
<path d="M55178 29543
L54784 29543
L55178 29318
L54784 29318
" />
<path d="M55178 29075
L55159 29112
L55140 29131
L55103 29150
L54990 29150
L54953 29131
L54934 29112
L54915 29075
L54915 29018
L54934 28981
L54953 28962
L54990 28943
L55103 28943
L55140 28962
L55159 28981
L55178 29018
L55178 29075
" />
<path d="M55178 28587
L55178 28775
L54784 28775
" />
<path d="M54971 28456
L54971 28325
" />
<path d="M55178 28268
L55178 28456
L54784 28456
L54784 28268
" />
<path d="M55178 28100
L54784 28100
L54784 28006
L54803 27950
L54840 27912
L54878 27893
L54953 27875
L55009 27875
L55084 27893
L55121 27912
L55159 27950
L55178 28006
L55178 28100
" />
<path d="M34640 38303
L34640 37909
L34771 38190
L34903 37909
L34903 38303
" />
<path d="M35053 37909
L35315 38303
" />
<path d="M35315 37909
L35053 38303
" />
<path d="M35465 38303
L35465 38040
" />
<path d="M35465 38115
L35484 38078
L35503 38059
L35540 38040
L35578 38040
" />
<path d="M35671 37909
L35915 37909
L35784 38059
L35840 38059
L35878 38078
L35896 38096
L35915 38134
L35915 38228
L35896 38265
L35878 38284
L35840 38303
L35728 38303
L35690 38284
L35671 38265
" />
<path d="M36253 38284
L36215 38303
L36140 38303
L36103 38284
L36084 38265
L36065 38228
L36065 38115
L36084 38078
L36103 38059
L36140 38040
L36215 38040
L36253 38059
" />
<path d="M36496 37909
L36534 37909
L36571 37928
L36590 37946
L36609 37984
L36627 38059
L36627 38153
L36609 38228
L36590 38265
L36571 38284
L36534 38303
L36496 38303
L36459 38284
L36440 38265
L36421 38228
L36403 38153
L36403 38059
L36421 37984
L36440 37946
L36459 37928
L36496 37909
" />
<path d="M34143 33928
L34143 33534
L34275 33815
L34406 33534
L34406 33928
" />
<path d="M34556 33534
L34818 33928
" />
<path d="M34818 33534
L34556 33928
" />
<path d="M34968 33778
L35268 33778
" />
<path d="M35456 33928
L35456 33534
L35681 33928
L35681 33534
" />
<path d="M35924 33928
L35887 33909
L35868 33890
L35849 33853
L35849 33740
L35868 33703
L35887 33684
L35924 33665
L35981 33665
L36018 33684
L36037 33703
L36056 33740
L36056 33853
L36037 33890
L36018 33909
L35981 33928
L35924 33928
" />
<path d="M36412 33928
L36224 33928
L36224 33534
" />
<path d="M36543 33721
L36674 33721
" />
<path d="M36731 33928
L36543 33928
L36543 33534
L36731 33534
" />
<path d="M36899 33928
L36899 33534
L36993 33534
L37049 33553
L37087 33590
L37106 33628
L37124 33703
L37124 33759
L37106 33834
L37087 33871
L37049 33909
L36993 33928
L36899 33928
" />
<path d="M42140 38303
L42140 37909
L42271 38190
L42403 37909
L42403 38303
" />
<path d="M42553 37909
L42815 38303
" />
<path d="M42815 37909
L42553 38303
" />
<path d="M42965 38303
L42965 38040
" />
<path d="M42965 38115
L42984 38078
L43003 38059
L43040 38040
L43078 38040
" />
<path d="M43171 37909
L43415 37909
L43284 38059
L43340 38059
L43378 38078
L43396 38096
L43415 38134
L43415 38228
L43396 38265
L43378 38284
L43340 38303
L43228 38303
L43190 38284
L43171 38265
" />
<path d="M43753 38284
L43715 38303
L43640 38303
L43603 38284
L43584 38265
L43565 38228
L43565 38115
L43584 38078
L43603 38059
L43640 38040
L43715 38040
L43753 38059
" />
<path d="M44127 38303
L43903 38303
" />
<path d="M44015 38303
L44015 37909
L43978 37965
L43940 38003
L43903 38021
" />
<path d="M41643 33928
L41643 33534
L41775 33815
L41906 33534
L41906 33928
" />
<path d="M42056 33534
L42318 33928
" />
<path d="M42318 33534
L42056 33928
" />
<path d="M42468 33778
L42768 33778
" />
<path d="M42956 33928
L42956 33534
L43181 33928
L43181 33534
" />
<path d="M43424 33928
L43387 33909
L43368 33890
L43349 33853
L43349 33740
L43368 33703
L43387 33684
L43424 33665
L43481 33665
L43518 33684
L43537 33703
L43556 33740
L43556 33853
L43537 33890
L43518 33909
L43481 33928
L43424 33928
" />
<path d="M43912 33928
L43724 33928
L43724 33534
" />
<path d="M44043 33721
L44174 33721
" />
<path d="M44231 33928
L44043 33928
L44043 33534
L44231 33534
" />
<path d="M44399 33928
L44399 33534
L44493 33534
L44549 33553
L44587 33590
L44606 33628
L44624 33703
L44624 33759
L44606 33834
L44587 33871
L44549 33909
L44493 33928
L44399 33928
" />
<path d="M59553 37859
L59159 37859
L59440 37728
L59159 37596
L59553 37596
" />
<path d="M59159 37446
L59553 37184
" />
<path d="M59159 37184
L59553 37446
" />
<path d="M59553 37034
L59290 37034
" />
<path d="M59365 37034
L59328 37015
L59309 36996
L59290 36959
L59290 36921
" />
<path d="M59159 36828
L59159 36584
L59309 36715
L59309 36659
L59328 36621
L59346 36603
L59384 36584
L59478 36584
L59515 36603
L59534 36621
L59553 36659
L59553 36771
L59534 36809
L59515 36828
" />
<path d="M59534 36246
L59553 36284
L59553 36359
L59534 36396
L59515 36415
L59478 36434
L59365 36434
L59328 36415
L59309 36396
L59290 36359
L59290 36284
L59309 36246
" />
<path d="M59159 36115
L59159 35872
L59309 36003
L59309 35946
L59328 35909
L59346 35890
L59384 35872
L59478 35872
L59515 35890
L59534 35909
L59553 35946
L59553 36059
L59534 36096
L59515 36115
" />
<path d="M55178 38356
L54784 38356
L55065 38224
L54784 38093
L55178 38093
" />
<path d="M54784 37943
L55178 37681
" />
<path d="M54784 37681
L55178 37943
" />
<path d="M55028 37531
L55028 37231
" />
<path d="M55178 37043
L54784 37043
L55178 36818
L54784 36818
" />
<path d="M55178 36575
L55159 36612
L55140 36631
L55103 36650
L54990 36650
L54953 36631
L54934 36612
L54915 36575
L54915 36518
L54934 36481
L54953 36462
L54990 36443
L55103 36443
L55140 36462
L55159 36481
L55178 36518
L55178 36575
" />
<path d="M55178 36087
L55178 36275
L54784 36275
" />
<path d="M54971 35956
L54971 35825
" />
<path d="M55178 35768
L55178 35956
L54784 35956
L54784 35768
" />
<path d="M55178 35600
L54784 35600
L54784 35506
L54803 35450
L54840 35412
L54878 35393
L54953 35375
L55009 35375
L55084 35393
L55121 35412
L55159 35450
L55178 35506
L55178 35600
" />
<path d="M59553 45359
L59159 45359
L59440 45228
L59159 45096
L59553 45096
" />
<path d="M59159 44946
L59553 44684
" />
<path d="M59159 44684
L59553 44946
" />
<path d="M59553 44534
L59290 44534
" />
<path d="M59365 44534
L59328 44515
L59309 44496
L59290 44459
L59290 44421
" />
<path d="M59290 44121
L59553 44121
" />
<path d="M59140 44215
L59421 44309
L59421 44065
" />
<path d="M59534 43746
L59553 43784
L59553 43859
L59534 43896
L59515 43915
L59478 43934
L59365 43934
L59328 43915
L59309 43896
L59290 43859
L59290 43784
L59309 43746
" />
<path d="M59159 43615
L59159 43372
L59309 43503
L59309 43446
L59328 43409
L59346 43390
L59384 43372
L59478 43372
L59515 43390
L59534 43409
L59553 43446
L59553 43559
L59534 43596
L59515 43615
" />
<path d="M55178 45856
L54784 45856
L55065 45724
L54784 45593
L55178 45593
" />
<path d="M54784 45443
L55178 45181
" />
<path d="M54784 45181
L55178 45443
" />
<path d="M55028 45031
L55028 44731
" />
<path d="M55178 44543
L54784 44543
L55178 44318
L54784 44318
" />
<path d="M55178 44075
L55159 44112
L55140 44131
L55103 44150
L54990 44150
L54953 44131
L54934 44112
L54915 44075
L54915 44018
L54934 43981
L54953 43962
L54990 43943
L55103 43943
L55140 43962
L55159 43981
L55178 44018
L55178 44075
" />
<path d="M55178 43587
L55178 43775
L54784 43775
" />
<path d="M54971 43456
L54971 43325
" />
<path d="M55178 43268
L55178 43456
L54784 43456
L54784 43268
" />
<path d="M55178 43100
L54784 43100
L54784 43006
L54803 42950
L54840 42912
L54878 42893
L54953 42875
L55009 42875
L55084 42893
L55121 42912
L55159 42950
L55178 43006
L55178 43100
" />
<g >
</g>
</g>
<g style="fill:#000000; fill-opacity:0.0; 
stroke:#000000; stroke-width:59.0551; stroke-opacity:1; 
stroke-linecap:round; stroke-linejoin:round;">
<g >
</g>
<g >
</g>
<g >
</g>
<g >
</g>
<g >
</g>
<g >
</g>
<g >
</g>
<g >
</g>
<g >
</g>
<g >
</g>
<g >
</g>
<g >
</g>
<g >
</g>
<g >
</g>
<g >
</g>
<g >
</g>
<g >
</g>
<g >
</g>
<g >
</g>
<g >
</g>
<g >
</g>
<g >
</g>
<g >
</g>
<g >
</g>
<g >
</g>
<g >
</g>
<g >
</g>
<g >
</g>
<g >
</g>
<g >
</g>
<g >
</g>
<g >
</g>
<g >
</g>
<g >
</g>
<g >
</g>
<g >
</g>
<g >
</g>
<g >
</g>
<g >
</g>
<g >
</g>
<g >
</g>
<g >
</g>
<g >
</g>
<g >
</g>
<g >
</g>
</g> 
</svg>
